PathFileType	4	(X/Y/Z)	20_2_20_p0_0-445_filt_butterworth.trc
DataRate	CameraRate	NumFrames	NumMarkers	Units	OrigDataRate	OrigDataStartFrame	OrigNumFrames
60.0	60.0	6	27	m	60.0	0	445
Frame#	Time	RHip			RKnee			RAnkle			RBigToe			RSmallToe			RHeel			LHip			LKnee			LAnkle			LBigToe			LSmallToe			LHeel			Neck			Head			Nose			RShoulder			RElbow			RWrist			RThumb			RIndex			RPinky			LShoulder			LElbow			LWrist			LThumb			LIndex			LPinky			
		X1	Y1	Z1	X2	Y2	Z2	X3	Y3	Z3	X4	Y4	Z4	X5	Y5	Z5	X6	Y6	Z6	X7	Y7	Z7	X8	Y8	Z8	X9	Y9	Z9	X10	Y10	Z10	X11	Y11	Z11	X12	Y12	Z12	X13	Y13	Z13	X14	Y14	Z14	X15	Y15	Z15	X16	Y16	Z16	X17	Y17	Z17	X18	Y18	Z18	X19	Y19	Z19	X20	Y20	Z20	X21	Y21	Z21	X22	Y22	Z22	X23	Y23	Z23	X24	Y24	Z24	X25	Y25	Z25	X26	Y26	Z26	X27	Y27	Z27	
0	0.0	0.3671061682146167	0.49791810073675075	0.9342622803830801	0.337696866367747	0.6426712544949699	1.3429132082293493	0.3277358712312342	0.7411357318786448	1.7542239124648304	0.3241415465128163	0.6278808111119722	1.8050074351931085	0.3817253724502404	0.6548634435499763	1.8012886220432036	0.3127598618684834	0.8561490246782228	1.8395444641762189	0.16494603711891276	0.5256589759345586	0.9293414061698121	0.14524698816394488	0.6849073877990977	1.328376217864251	0.14283892205683896	0.7943428772090986	1.7702070825039486	0.15452496075337535	0.5943709141570956	1.7763981958701454	0.11565382925833494	0.6197308780300126	1.7742742965413045	0.15434464663517483	0.8410461684461695	1.80900186848837	0.26878341487361157	0.38776031667951466	0.3557669637708485	0.2645334853325574	0.32299014557109085	0.12372414023660697	0.25089886844583087	0.24816680264899	0.2691075177920675	0.41723071266343625	0.4048326258633327	0.43755589621232593	0.4529815136179865	0.37807514288086763	0.7004783750573006	0.29507763791151853	0.23761119580047846	0.714998269070846	0.21826229767662317	0.16884081873705692	0.6518475824568845	0.20856703311316815	0.14656974632356246	0.6781723149675146	0.21051655398197455	0.1617304946075591	0.7057664732223197	0.11174535495529214	0.45544468414228206	0.44024685334850494	0.05867670814056216	0.4535922243921281	0.6675166979435456	0.1551229580513221	0.24660263797245185	0.6885408576997387	0.20907651253130183	0.17001176435875365	0.6515268606308515	0.225166725749605	0.17532765637944442	0.6917413807324488	0.22775843290491432	0.1705399013619839	0.733356407685203
1	0.0166666666666666	0.36511512999009615	0.4939582503328508	0.9342145554031285	0.339446917021812	0.6482944794796303	1.3431339019492192	0.3279190903660856	0.7404876739118043	1.7539650387972654	0.3259714201750391	0.6377721657171804	1.8056727683211267	0.3786856038194342	0.654998341457063	1.801315215887019	0.31113745967357714	0.8500112053483809	1.8378776156799406	0.16283696821543436	0.5244370375164699	0.9267724552677287	0.1455969085880497	0.68552209667054	1.3314528773701695	0.1428966869994276	0.7942363529548399	1.7702134652871306	0.15698235260601445	0.605600078095891	1.7830158968837386	0.11636297461135187	0.6238804273971222	1.775843856954559	0.15661908752935338	0.8362643325031567	1.8096590378155841	0.2687951055432092	0.3878234800883243	0.35582776350884904	0.264616484826883	0.32298115303309316	0.12394886641597472	0.2510375411337093	0.24846900851385717	0.2690260563476023	0.4173797518135688	0.404597888955605	0.437684055207921	0.4522824469141715	0.3821103107265912	0.7021986715112161	0.29610595279344115	0.24097738525977325	0.7153289318083107	0.21942927062033363	0.18273566209380593	0.6540090284428557	0.20643674431159542	0.160867917045794	0.683140730168692	0.2064797684392636	0.17834014535806045	0.7189637565517792	0.10897699973407557	0.4521562312625734	0.4404533340910822	0.05413913716041333	0.4568912702890556	0.6710449564358414	0.15390774895714485	0.24765796555781844	0.6915252064010327	0.20740900097639337	0.1732934257953445	0.6542726665206231	0.21937419893288965	0.16692992382943234	0.6893016758561316	0.2226528402175001	0.17879470980098466	0.7383770836515104
2	0.0333333333333333	0.3638631543529614	0.49205644724582	0.9343887497888784	0.3412807165385423	0.6536832793386032	1.3446990134529022	0.32794622102276055	0.7404637973968544	1.7539479181383415	0.32614917657521136	0.6440602927229011	1.8062226397946721	0.376831015169796	0.6552392400586579	1.8013702774275382	0.30964826660991307	0.8444126330241477	1.837206328814192	0.16151649592723777	0.5238229662330858	0.9253005128407337	0.14596393165345514	0.6862416335516044	1.3344711196073376	0.14292270511482072	0.7941887981387649	1.77021820931391	0.1584563982986297	0.6123185635982105	1.7869887579019494	0.11635761992255002	0.6245540973942268	1.7761380876897674	0.1585444960634424	0.8347888659908507	1.8097409819388766	0.26877529589040217	0.38783830577252054	0.35544347196071213	0.2646774937435246	0.3229586564002251	0.12409334803804822	0.25154081083826463	0.24871340774959627	0.2689597216771776	0.41800816153401943	0.40563957234380316	0.43769191004469604	0.4522436868480923	0.3871419364015258	0.7038816770993828	0.2964624816993423	0.2434309866075211	0.7165377308675946	0.21897310615344198	0.18887317351244917	0.6560636685498955	0.20413644131346387	0.16894960335332757	0.6869325524223927	0.203775427618192	0.18991182491569827	0.7302432654759694	0.10827712927721736	0.4521330798619933	0.440422037998473	0.05076859889048661	0.4619626854588419	0.6736034568606908	0.15266089268822083	0.24898162191082845	0.6945460600515072	0.20553597496044584	0.17363620166673352	0.6568699869966997	0.21545219948195432	0.16184462249411827	0.6886438073217934	0.21907005540919797	0.1851232313735915	0.7425656547402407
3	0.05	0.3635057123257783	0.4930277439424572	0.9345082854283778	0.34268959757027706	0.6574814332440798	1.3472458271216232	0.3276183689217349	0.7422382250850077	1.7545993101918664	0.3247237137017381	0.6460687369945791	1.80651930930046	0.3762842594469233	0.655640486928825	1.8014930693178643	0.30889331092277045	0.841472558586341	1.8382230014032135	0.16120706261112644	0.5240633979524001	0.9251452961446476	0.1463211138945325	0.6871157865975438	1.336728183127931	0.14291596044847635	0.7942127085221556	1.7702265750617736	0.15885849227571505	0.6141667196721727	1.7880990421189875	0.11585784648091839	0.6227753626597299	1.7755142308593603	0.15963432729065855	0.8373394931465546	1.8097373652263187	0.2687222739644173	0.3878443748548916	0.35444646942305374	0.26471277337724136	0.3229158213401999	0.12414330384846334	0.25250824848157416	0.2488558400670567	0.2689213327797289	0.4193544902594325	0.4085747679769975	0.4375238177678078	0.453572878808868	0.39369395525667816	0.7050779839243013	0.29590389927419686	0.24478739353842982	0.7189048609992256	0.21706605689313935	0.18649372144561674	0.6582966802053483	0.2016926097114711	0.1714442553058611	0.6892362195777865	0.20234229838268183	0.19713643724020793	0.7390789335464847	0.10906650341928362	0.4540295175459096	0.44028023601164357	0.0490376701465877	0.4687944780598829	0.6747833932406953	0.1514831629480103	0.2515169723129431	0.6979547542132362	0.2035302389355137	0.17189886862468617	0.6594203222749193	0.21249229209821227	0.16024473957927954	0.6891923839386604	0.21699144001717233	0.18979797079118652	0.7455605976641855
4	0.0666666666666666	0.36402889184059195	0.4953278705841192	0.933661299830806	0.34300949087132454	0.6581291738685813	1.3493334576437275	0.32681720696533034	0.7466404199474171	1.7561990212084861	0.32321323195425633	0.6446164573274724	1.8061876927146683	0.37640553235204655	0.6559541989574353	1.8016216112499486	0.3093345924542522	0.8428203378472775	1.840586838532078	0.1618132744310075	0.5249886150071721	0.9259007751346642	0.14665940294714752	0.6882182640281364	1.3378627588724774	0.14289635957989133	0.7942805718142878	1.7702401807565513	0.15873103950894768	0.6136495005046487	1.7878083016091162	0.11542056685030191	0.6213011756005717	1.7749833133919086	0.1595610433109601	0.8410019048256875	1.8102863621773455	0.2686799130620872	0.3879216685806053	0.3533499859386004	0.26473628562640916	0.32286796807410445	0.12413910433869574	0.2533819689785788	0.24884020306158935	0.2689244619351377	0.4210502576836421	0.4124773410005747	0.437279179762905	0.45633032765008213	0.40164255075168737	0.7053798773192692	0.2949758497419682	0.24569458329845054	0.7219190113418371	0.21487738246936006	0.1800376994394875	0.661335809768773	0.19993233539638866	0.1716893226270206	0.6911782996186582	0.20179235629487938	0.20196435282827951	0.7462307743941378	0.10943888996905658	0.45434751224887693	0.4402868364861441	0.048866207611970844	0.4759467905365431	0.674869127204337	0.15034542409910712	0.2560510713981523	0.7022745822048855	0.20152510005265828	0.17046351382276442	0.662158575310904	0.20957136410221927	0.16031937934751608	0.6900284950556022	0.2154803132087028	0.19365656057416758	0.7480857507567179
5	0.0833333333333333	0.3652112462336359	0.49705422761349705	0.9311566831734868	0.34205394797737515	0.6552887423350374	1.349851662850351	0.3257845165902917	0.7523696940713016	1.7582589247581946	0.32274395381879206	0.6403324583587598	1.8048689851995368	0.37660285500014357	0.655333362634123	1.8014452683237552	0.3107802173075897	0.8478153154154379	1.8430808633365663	0.16316971257582277	0.5261025025875943	0.926914713480628	0.1469469751068625	0.6894758395449958	1.3382608628457762	0.142880085607199	0.7943589738717031	1.7702541307978732	0.15855040813401303	0.6128554605976005	1.7873491427548933	0.11520777697954121	0.6210801784491096	1.77492218700909	0.15840513790590166	0.8427418797743096	1.8114291767448916	0.26871942736162374	0.3881471070353749	0.3532332049425661	0.2647633991394806	0.3228484351893825	0.12412491532254982	0.2533395188106978	0.24866268115895457	0.26896801760671935	0.4223622057990837	0.41549198425656586	0.43719461804127246	0.4596263019573723	0.41007402243842755	0.7048594890117773	0.2944783095966467	0.24744155001953883	0.7248781040885584	0.21323276955013212	0.17382830438811114	0.6655488674626897	0.19982093155827407	0.17182603378272895	0.6945563030738183	0.20205644794769012	0.2040210648728643	0.7521875852522601	0.10877077820192896	0.45164584475535957	0.4404660103891721	0.04968124020969611	0.48191577448693074	0.6744851679641117	0.1492747358308128	0.26150652367536414	0.7070968761428229	0.19948880573769917	0.16971280849462045	0.6652128203020904	0.20735630709057834	0.16056563386266767	0.6914479649333489	0.21383873691010918	0.1965991393883538	0.7508868296138612
